<svg width="320" height="120" viewBox="0 0 320 120" fill="none" xmlns="http://www.w3.org/2000/svg">
  <path d="M68.6248 20.1248C58.3534 9.85336 43.8534 9.85336 33.582 20.1248C23.3105 30.3962 23.3105 44.8962 33.582 55.1677L51.1034 72.689L68.6248 90.2104C78.8962 100.482 93.3962 100.482 103.668 90.2104C113.939 79.9389 113.939 65.4389 103.668 55.1675L86.1462 37.6461L68.6248 20.1248Z" fill="#FF5858"/>
  <path d="M161.328 68.7C161.328 71.164 160.764 73.232 159.636 74.904C158.508 76.552 157.008 77.812 155.136 78.684C153.264 79.532 151.172 79.956 148.86 79.956C146.1 79.956 143.724 79.448 141.732 78.432C139.764 77.392 138.252 75.724 137.196 73.428C136.14 71.108 135.612 68.148 135.612 64.548C135.612 58.764 136.932 54.372 139.572 51.372C142.212 48.372 146.076 46.872 151.164 46.872C154.236 46.872 156.804 47.528 158.868 48.84C160.932 50.152 162.06 51.948 162.252 54.228H156.024C155.628 53.028 154.956 52.164 154.008 51.636C153.084 51.108 152.004 50.844 150.768 50.844C147.9 50.844 145.74 51.948 144.288 54.156C142.836 56.34 142.1 59.532 142.08 63.732C143.496 61.548 145.464 60.456 147.984 60.456C149.904 60.456 151.62 60.9 153.132 61.788C154.644 62.652 155.82 63.852 156.66 65.388C157.524 66.924 157.956 68.7 157.956 70.716C157.956 72.9 157.5 74.784 156.588 76.368C155.676 77.952 154.404 79.176 152.772 80.04C151.164 80.88 149.328 81.3 147.264 81.3C146.16 81.3 145.104 81.108 144.096 80.724C143.088 80.34 142.176 79.752 141.36 78.96C140.544 78.168 139.908 77.172 139.452 75.972H139.308V81H135.864C135.984 75.408 136.044 70.86 136.044 67.356V65.208C136.044 61.536 135.984 57.048 135.864 51.744H141.804V57.024H141.948C142.404 55.728 143.076 54.648 143.964 53.784C144.876 52.896 145.908 52.236 147.06 51.816C148.236 51.396 149.424 51.18 150.624 51.18C153.84 51.18 156.372 52.224 158.22 54.312C160.092 56.4 161.028 59.604 161.028 63.924V64.908H148.428C148.452 66.66 148.872 68.028 149.688 69.012C150.528 69.996 151.74 70.488 153.324 70.488C154.5 70.488 155.46 70.2 156.204 69.624C156.972 69.024 157.416 68.16 157.536 67.032H161.328V68.7ZM148.644 64.188H154.44C154.392 62.7 154.008 61.548 153.288 60.732C152.568 59.916 151.548 59.508 150.228 59.508C148.98 59.508 147.96 59.916 147.168 60.732C146.376 61.548 145.956 62.7 145.908 64.188H148.644ZM174.096 81.3C171.456 81.3 169.308 80.712 167.652 79.536C166.02 78.36 165.204 76.692 165.204 74.532C165.204 72.492 165.9 70.836 167.292 69.564C168.684 68.292 170.844 67.536 173.772 67.296L179.928 66.816V65.496C179.928 64.224 179.556 63.228 178.812 62.508C178.068 61.764 176.94 61.392 175.428 61.392C174.084 61.392 172.992 61.68 172.152 62.256C171.336 62.832 170.82 63.672 170.604 64.776H166.236C166.404 62.712 167.292 61.02 168.9 59.7C170.532 58.38 172.692 57.72 175.38 57.72C178.116 57.72 180.228 58.38 181.716 59.7C183.204 61.02 183.948 62.796 183.948 65.028V77.268C183.948 77.868 184.02 78.432 184.164 78.96C184.308 79.488 184.5 79.932 184.74 80.292V81H180.348C180.132 80.592 179.964 80.136 179.844 79.632C179.748 79.104 179.688 78.6 179.664 78.12C178.92 79.176 177.888 80.04 176.568 80.712C175.272 81.104 173.784 81.3 172.104 81.3H174.096ZM175.044 77.868C176.148 77.868 177.168 77.64 178.104 77.184C179.04 76.728 179.76 76.092 180.264 75.276C180.792 74.46 181.056 73.524 181.056 72.468V69.972L175.956 70.404C174.228 70.572 172.968 70.944 172.176 71.52C171.384 72.072 170.988 72.876 170.988 73.932C170.988 74.892 171.36 75.648 172.104 76.2C172.848 76.728 173.82 77.004 175.02 77.004L175.044 77.868ZM199.248 57.72C200.76 57.72 202.14 58.008 203.388 58.584C204.636 59.16 205.692 60.096 206.556 61.392H206.7V58.02H210.624V81H206.7V77.628H206.556C205.692 78.924 204.636 79.86 203.388 80.436C202.14 81.012 200.76 81.3 199.248 81.3C197.4 81.3 195.756 80.856 194.316 79.968C192.876 79.056 191.76 77.772 190.968 76.116C190.176 74.46 189.78 72.468 189.78 70.14V68.58C189.78 66.252 190.176 64.26 190.968 62.604C191.76 60.948 192.876 59.676 194.316 58.788C195.756 58.076 197.4 57.72 199.248 57.72ZM200.208 60.996C197.88 60.996 196.092 61.728 194.844 63.192C193.596 64.656 192.972 66.72 192.972 69.384C192.972 72.024 193.596 74.088 194.844 75.576C196.092 77.04 197.88 77.772 200.208 77.772C201.648 77.772 202.896 77.436 203.952 76.764C205.032 76.068 205.848 75.132 206.4 73.956C206.952 72.78 207.228 71.448 207.228 69.96V68.82C207.228 67.308 206.952 65.964 206.4 64.788C205.848 63.612 205.032 62.688 203.952 62.016C202.896 61.336 201.648 60.996 200.208 60.996ZM228.696 57.72C230.424 57.72 231.984 58.14 233.376 58.98C234.768 59.796 235.848 61.056 236.616 62.76C237.384 64.464 237.768 66.648 237.768 69.312C237.768 71.976 237.384 74.16 236.616 75.864C235.848 77.568 234.768 78.84 233.376 79.68C231.984 80.52 230.424 80.94 228.696 80.94C227.112 80.94 225.756 80.58 224.628 79.86C223.524 79.116 222.684 78.132 222.108 76.908H221.964V91.296H218.832V65.784C218.832 63.168 218.772 60.696 218.652 58.368H221.796V62.232H221.94C222.54 60.984 223.404 59.976 224.532 59.208C225.684 58.44 227.064 58.056 228.672 58.056L228.696 57.72ZM227.712 60.996C225.672 60.996 224.112 61.68 223.032 63.048C221.952 64.416 221.412 66.36 221.412 68.88V69.708C221.412 72.228 221.952 74.184 223.032 75.576C224.112 76.944 225.672 77.628 227.712 77.628C229.8 77.628 231.36 76.896 232.392 75.432C233.448 73.968 233.976 71.976 233.976 69.456C233.976 66.912 233.448 64.92 232.392 63.48C231.36 61.824 229.8 60.996 227.712 60.996ZM253.668 57.72C255.948 57.72 257.964 58.2 259.716 59.16C261.492 60.12 262.884 61.536 263.892 63.408C264.9 65.28 265.404 67.524 265.404 70.14C265.404 72.756 264.9 75 263.892 76.872C262.884 78.744 261.492 80.16 259.716 81.12C257.964 82.08 255.948 82.56 253.668 82.56C251.364 82.56 249.324 82.08 247.548 81.12C245.796 80.16 244.416 78.744 243.408 76.872C242.4 75 241.896 72.756 241.896 70.14C241.896 67.524 242.4 65.28 243.408 63.408C244.416 61.536 245.796 60.12 247.548 59.16C249.324 58.2 251.364 57.72 253.668 57.72ZM253.668 61.248C252.084 61.248 250.74 61.644 249.636 62.436C248.532 63.228 247.704 64.332 247.152 65.748C246.6 67.164 246.324 68.748 246.324 70.5C246.324 72.252 246.6 73.836 247.152 75.252C247.704 76.668 248.532 77.772 249.636 78.564C250.74 79.356 252.084 79.752 253.668 79.752C255.228 79.752 256.56 79.356 257.664 78.564C258.768 77.772 259.596 76.668 260.148 75.252C260.7 73.836 260.976 72.252 260.976 70.5C260.976 68.748 260.7 67.164 260.148 65.748C259.596 64.332 258.768 63.228 257.664 62.436C256.56 61.644 255.228 61.248 253.668 61.248ZM279.972 81.3C277.332 81.3 275.184 80.712 273.528 79.536C271.896 78.36 271.08 76.692 271.08 74.532C271.08 72.492 271.776 70.836 273.168 69.564C274.56 68.292 276.72 67.536 279.648 67.296L285.804 66.816V65.496C285.804 64.224 285.432 63.228 284.688 62.508C283.944 61.764 282.816 61.392 281.304 61.392C279.96 61.392 278.868 61.68 278.028 62.256C277.212 62.832 276.696 63.672 276.48 64.776H272.112C272.28 62.712 273.168 61.02 274.776 59.7C276.408 58.38 278.568 57.72 281.256 57.72C283.992 57.72 286.104 58.38 287.592 59.7C289.08 61.02 289.824 62.796 289.824 65.028V77.268C289.824 77.868 289.896 78.432 290.04 78.96C290.184 79.488 290.376 79.932 290.616 80.292V81H286.224C286.008 80.592 285.84 80.136 285.72 79.632C285.624 79.104 285.564 78.6 285.54 78.12C284.796 79.176 283.764 80.04 282.444 80.712C281.148 81.104 279.66 81.3 277.98 81.3H279.972ZM280.92 77.868C282.024 77.868 283.044 77.64 283.98 77.184C284.916 76.728 285.636 76.092 286.14 75.276C286.668 74.46 286.932 73.524 286.932 72.468V69.972L281.832 70.404C280.104 70.572 278.844 70.944 278.052 71.52C277.26 72.072 276.864 72.876 276.864 73.932C276.864 74.892 277.236 75.648 277.98 76.2C278.724 76.728 279.696 77.004 280.896 77.004L280.92 77.868Z" fill="#FF5858"/>
</svg> 